<svg xmlns="http://www.w3.org/2000/svg" viewBox="0 0 64 64"><defs><linearGradient id="g" x1="0" y1="0" x2="0" y2="1"><stop offset="0" stop-color="#9FCDE2"/><stop offset="1" stop-color="#DCEFF7"/></linearGradient></defs><circle cx="32" cy="32" r="30" fill="url(#g)"/><g fill="#3B4A87"><ellipse cx="19" cy="27" rx="4.6" ry="6.2" transform="rotate(-24 19 27)"/><ellipse cx="28" cy="17.5" rx="4.6" ry="6.2"/><ellipse cx="37" cy="17.5" rx="4.6" ry="6.2"/><ellipse cx="46" cy="27" rx="4.6" ry="6.2" transform="rotate(24 46 27)"/><path d="M32.5 29c-7.6 0-13.5 7.4-13.5 13 0 3.8 3.1 5.6 6.2 5.6 2.5 0 4.4-1.3 7.3-1.3s4.800 1.300 7.300 1.300c3.100 0 6.200-1.800 6.200-5.600C46 36.400 40.100 29 32.500 29z"/></g><ellipse cx="22" cy="12" rx="6" ry="3" transform="rotate(-35 22 12)" fill="#fff" opacity=".7"/></svg>
